<?xml version="1.0" encoding="UTF-8"?><svg xmlns="http://www.w3.org/2000/svg" width="100" height="78" fill="none"><path fill="#DDD" stroke="#DDD" stroke-width="6" d="M75.232 8.59 93.05 22.437a9.2 9.2 0 0 1 1.623 12.938L67.215 70.707a9.2 9.2 0 0 1-12.938 1.623L36.46 58.484a9.2 9.2 0 0 1-1.623-12.938l27.457-35.333a9.2 9.2 0 0 1 12.938-1.622ZM55.348 4.072l20.53 9.362a9.2 9.2 0 0 1 4.564 12.214L61.877 66.361a9.2 9.2 0 0 1-12.215 4.564l-20.53-9.362a9.2 9.2 0 0 1-4.564-12.215L43.133 8.635A9.2 9.2 0 0 1 55.348 4.07Zm-15.93-.941L61.667 6.89a9.074 9.074 0 0 1 7.45 10.61l-7.962 44.033a9.327 9.327 0 0 1-10.732 7.536L28.175 65.31a9.074 9.074 0 0 1-7.45-10.61l7.961-44.033A9.327 9.327 0 0 1 39.418 3.13ZM25.377 5.862l22.546-.9a9.2 9.2 0 0 1 9.58 8.845l1.785 44.711a9.2 9.2 0 0 1-8.845 9.58l-22.546.9a9.2 9.2 0 0 1-9.58-8.844l-1.785-44.712a9.2 9.2 0 0 1 8.845-9.58ZM9.42 11.919l21.501-6.843a9.2 9.2 0 0 1 11.583 5.99l13.57 42.639a9.2 9.2 0 0 1-5.989 11.582L28.585 72.13a9.2 9.2 0 0 1-11.582-5.99L3.43 23.502a9.2 9.2 0 0 1 5.99-11.582Z"/><path fill="#3BB3C4" stroke="#fff" stroke-width="2.422" d="m9.421 11.92 21.501-6.844a9.2 9.2 0 0 1 11.583 5.99l13.57 42.639a9.2 9.2 0 0 1-5.989 11.582L28.585 72.13a9.2 9.2 0 0 1-11.582-5.99L3.43 23.502a9.2 9.2 0 0 1 5.99-11.582Z"/><path fill="#B74F8E" stroke="#fff" stroke-width="2.422" d="m25.377 5.862 22.546-.9a9.2 9.2 0 0 1 9.58 8.845l1.785 44.711a9.2 9.2 0 0 1-8.845 9.58l-22.546.9a9.2 9.2 0 0 1-9.58-8.844l-1.785-44.712a9.2 9.2 0 0 1 8.845-9.58Z"/><path fill="#E91414" stroke="#fff" stroke-width="2.422" d="M39.418 3.13 61.667 6.89a9.074 9.074 0 0 1 7.45 10.61l-7.962 44.033a9.327 9.327 0 0 1-10.732 7.536L28.175 65.31a9.074 9.074 0 0 1-7.45-10.61l7.961-44.033A9.327 9.327 0 0 1 39.418 3.13Z"/><path fill="#E57813" stroke="#fff" stroke-width="2.422" d="m55.348 4.071 20.53 9.362a9.2 9.2 0 0 1 4.564 12.214L61.877 66.361a9.2 9.2 0 0 1-12.215 4.564l-20.53-9.362a9.2 9.2 0 0 1-4.564-12.215L43.133 8.635A9.2 9.2 0 0 1 55.348 4.07Z"/><path fill="#F8C301" fill-opacity=".991" stroke="#fff" stroke-width="2.422" d="M75.232 8.59 93.05 22.437a9.2 9.2 0 0 1 1.623 12.938L67.215 70.707a9.2 9.2 0 0 1-12.938 1.623L36.46 58.484a9.2 9.2 0 0 1-1.623-12.938l27.457-35.332A9.2 9.2 0 0 1 75.232 8.59Z"/></svg>
